# xmcd
#
# Track frame offsets:
#	150
#	12444
#	26607
#	39301
#	53617
#	67667
#	80574
#	94475
#	106588
#	121287
#
# Disc length: 1837 seconds
#
# Revision: 0
# Processed by: cddbd v1.5.2PL0 Copyright (c) Steve Scherf et al.
# Submitted via: EasyCDDAExtractor 10.2.0.1
#
DISCID=70072b0a
DTITLE=Lee Dinwoodie - Rewind
DYEAR=2002
DGENRE=
TTITLE0=Don't stop
TTITLE1=Redneck of the woods
TTITLE2=Rewind
TTITLE3=If it were that easy
TTITLE4=If I stay
TTITLE5=She always says it first
TTITLE6=When hell freezes over
TTITLE7=Love gone crazy
TTITLE8=Room without windows
TTITLE9=Miracles
EXTD=
EXTT0=
EXTT1=
EXTT2=
EXTT3=
EXTT4=
EXTT5=
EXTT6=
EXTT7=
EXTT8=
EXTT9=
PLAYORDER=
